<svg width="61" height="50" viewBox="0 0 61 50" fill="none" xmlns="http://www.w3.org/2000/svg">
<path d="M5.00684 20V7C5.00684 6.20435 5.3229 5.44129 5.88551 4.87868C6.44812 4.31607 7.21119 4 8.00684 4H56.0068C56.8025 4 57.5655 4.31607 58.1281 4.87868C58.6908 5.44129 59.0068 6.20435 59.0068 7V37C59.0068 37.7956 58.6908 38.5587 58.1281 39.1213C57.5655 39.6839 56.8025 40 56.0068 40H17.0068" stroke="#505050" stroke-width="2" stroke-linecap="round" stroke-linejoin="round"/>
<path d="M17.0068 32H59.0068" stroke="#505050" stroke-width="2" stroke-linecap="round" stroke-linejoin="round"/>
<path d="M27.0068 46V40" stroke="#505050" stroke-width="2" stroke-linecap="round" stroke-linejoin="round"/>
<path d="M41.0068 46H23.0068" stroke="#505050" stroke-width="2" stroke-linecap="round" stroke-linejoin="round"/>
<path d="M37.0068 40V46" stroke="#505050" stroke-width="2" stroke-linecap="round" stroke-linejoin="round"/>
<path d="M30.0068 36H34.0068" stroke="#505050" stroke-width="2" stroke-linecap="round" stroke-linejoin="round"/>
<path d="M15.0068 20H3.00684C1.90227 20 1.00684 20.8954 1.00684 22V44C1.00684 45.1046 1.90227 46 3.00684 46H15.0068C16.1114 46 17.0068 45.1046 17.0068 44V22C17.0068 20.8954 16.1114 20 15.0068 20Z" stroke="#505050" stroke-width="2" stroke-linecap="round" stroke-linejoin="round"/>
<path d="M1.00684 40H17.0068" stroke="#505050" stroke-width="2" stroke-linecap="round" stroke-linejoin="round"/>
<path d="M8.00684 43H10.0068" stroke="#505050" stroke-width="2" stroke-linecap="round" stroke-linejoin="round"/>
</svg>
