<svg width="53" height="50" viewBox="0 0 53 50" fill="none" xmlns="http://www.w3.org/2000/svg">
<path d="M39.3402 6H47.3402C48.4011 6 49.4185 6.42142 50.1686 7.17157C50.9188 7.92172 51.3402 8.93913 51.3402 10V44C51.3402 45.0609 50.9188 46.0783 50.1686 46.8284C49.4185 47.5786 48.4011 48 47.3402 48H5.34021C4.27934 48 3.26193 47.5786 2.51178 46.8284C1.76164 46.0783 1.34021 45.0609 1.34021 44V10C1.34021 8.93913 1.76164 7.92172 2.51178 7.17157C3.26193 6.42142 4.27934 6 5.34021 6H13.3402" stroke="#505050" stroke-width="2" stroke-linejoin="round"/>
<path d="M17.3402 6H35.3402" stroke="#505050" stroke-width="2" stroke-linejoin="round"/>
<path d="M7.34021 16H45.3402" stroke="#505050" stroke-width="2" stroke-linecap="round" stroke-linejoin="round"/>
<path d="M17.3402 10C17.3402 10.5304 17.1295 11.0391 16.7544 11.4142C16.3794 11.7893 15.8706 12 15.3402 12C14.8098 12 14.3011 11.7893 13.926 11.4142C13.5509 11.0391 13.3402 10.5304 13.3402 10V4C13.3402 3.46957 13.5509 2.96086 13.926 2.58578C14.3011 2.21071 14.8098 2 15.3402 2C15.8706 2 16.3794 2.21071 16.7544 2.58578C17.1295 2.96086 17.3402 3.46957 17.3402 4V10Z" stroke="#505050" stroke-width="2" stroke-linecap="round" stroke-linejoin="round"/>
<path d="M39.3402 10C39.3402 10.5304 39.1295 11.0391 38.7544 11.4142C38.3794 11.7893 37.8706 12 37.3402 12C36.8098 12 36.3011 11.7893 35.926 11.4142C35.5509 11.0391 35.3402 10.5304 35.3402 10V4C35.3402 3.46957 35.5509 2.96086 35.926 2.58578C36.3011 2.21071 36.8098 2 37.3402 2C37.8706 2 38.3794 2.21071 38.7544 2.58578C39.1295 2.96086 39.3402 3.46957 39.3402 4V10Z" stroke="#505050" stroke-width="2" stroke-linecap="round" stroke-linejoin="round"/>
<path d="M13.3402 38H9.34021V42H13.3402V38Z" stroke="#505050" stroke-width="2" stroke-linejoin="round"/>
<path d="M23.3402 38H19.3402V42H23.3402V38Z" stroke="#505050" stroke-width="2" stroke-linejoin="round"/>
<path d="M33.3402 38H29.3402V42H33.3402V38Z" stroke="#505050" stroke-width="2" stroke-linejoin="round"/>
<path d="M13.3402 30H9.34021V34H13.3402V30Z" stroke="#505050" stroke-width="2" stroke-linejoin="round"/>
<path d="M23.3402 30H19.3402V34H23.3402V30Z" stroke="#505050" stroke-width="2" stroke-linejoin="round"/>
<path d="M33.3402 30H29.3402V34H33.3402V30Z" stroke="#505050" stroke-width="2" stroke-linejoin="round"/>
<path d="M43.3402 30H39.3402V34H43.3402V30Z" stroke="#505050" stroke-width="2" stroke-linejoin="round"/>
<path d="M23.3402 22H19.3402V26H23.3402V22Z" stroke="#505050" stroke-width="2" stroke-linejoin="round"/>
<path d="M33.3402 22H29.3402V26H33.3402V22Z" stroke="#505050" stroke-width="2" stroke-linejoin="round"/>
<path d="M43.3402 22H39.3402V26H43.3402V22Z" stroke="#505050" stroke-width="2" stroke-linejoin="round"/>
</svg>
