<svg width="24" height="23" viewBox="0 0 24 23" fill="none" xmlns="http://www.w3.org/2000/svg">
<g clip-path="url(#clip0_976_134589)">
<path fill-rule="evenodd" clip-rule="evenodd" d="M12 0.477539C6.47715 0.477539 2 4.95469 2 10.4775C2 16.0004 6.47715 20.4775 12 20.4775C17.5228 20.4775 22 16.0004 22 10.4775C22 4.95469 17.5228 0.477539 12 0.477539ZM16.2803 8.50787C16.5732 8.21498 16.5732 7.7401 16.2803 7.44721C15.9874 7.15432 15.5126 7.15432 15.2197 7.44721L10.75 11.9169L8.78033 9.94721C8.48744 9.65432 8.01256 9.65432 7.71967 9.94721C7.42678 10.2401 7.42678 10.715 7.71967 11.0079L10.2197 13.5079C10.5126 13.8008 10.9874 13.8008 11.2803 13.5079L16.2803 8.50787Z" fill="#15b13e"/>
</g>
<defs>
<clipPath id="clip0_976_134589">
<rect width="24" height="22" fill="white" transform="translate(0 0.477539)"/>
</clipPath>
</defs>
</svg>
