<svg width="56" height="48" viewBox="0 0 56 48" fill="none" xmlns="http://www.w3.org/2000/svg">
<path d="M17.0068 34.9393H8.00684C6.15032 34.9393 4.36985 34.2018 3.0571 32.889C1.74434 31.5763 1.00684 29.7958 1.00684 27.9393C1.00684 26.0828 1.74434 24.3023 3.0571 22.9895C4.36985 21.6768 6.15032 20.9393 8.00684 20.9393C8.42972 20.9386 8.8517 20.9788 9.26685 21.0593C9.09861 20.365 9.01135 19.6536 9.00684 18.9393C9.00684 16.5523 9.95506 14.2632 11.6429 12.5753C13.3307 10.8875 15.6199 9.93928 18.0068 9.93928C19.8805 9.93455 21.7077 10.5226 23.2268 11.6193C23.8194 8.43837 25.5769 5.59278 28.1558 3.63865C30.7346 1.68453 33.9496 0.762341 37.1722 1.05235C40.3948 1.34236 43.3934 2.8237 45.582 5.20686C47.7705 7.59002 48.9917 10.7037 49.0068 13.9393C49.0004 14.5351 48.9536 15.1298 48.8668 15.7193C50.9951 16.613 52.7487 18.2156 53.83 20.255C54.9113 22.2944 55.2537 24.6452 54.7992 26.9083C54.3447 29.1715 53.1212 31.2077 51.3363 32.6715C49.5515 34.1353 47.3152 34.9365 45.0068 34.9393H39.0068" stroke="#505050" stroke-width="2" stroke-linejoin="round"/>
<path d="M28.0068 38.9392C28.5591 38.9392 29.0068 38.4915 29.0068 37.9392C29.0068 37.3869 28.5591 36.9392 28.0068 36.9392C27.4546 36.9392 27.0068 37.3869 27.0068 37.9392C27.0068 38.4915 27.4546 38.9392 28.0068 38.9392Z" stroke="#505050" stroke-width="2" stroke-linecap="round" stroke-linejoin="round"/>
<path d="M28.0068 40.9392V38.9392" stroke="#505050" stroke-width="2" stroke-linecap="round" stroke-linejoin="round"/>
<path d="M36.0068 30.9392H20.0068C18.35 30.9392 17.0068 32.2824 17.0068 33.9392V43.9392C17.0068 45.5961 18.35 46.9392 20.0068 46.9392H36.0068C37.6637 46.9392 39.0068 45.5961 39.0068 43.9392V33.9392C39.0068 32.2824 37.6637 30.9392 36.0068 30.9392Z" stroke="#505050" stroke-width="2" stroke-linecap="round" stroke-linejoin="round"/>
<path d="M21.0068 30.9392V23.9392C21.0068 22.0827 21.7443 20.3022 23.0571 18.9895C24.3699 17.6767 26.1503 16.9392 28.0068 16.9392C29.8634 16.9392 31.6438 17.6767 32.9566 18.9895C34.2693 20.3022 35.0068 22.0827 35.0068 23.9392V30.9392" stroke="#505050" stroke-width="2" stroke-linecap="round" stroke-linejoin="round"/>
</svg>
